<svg xmlns="http://www.w3.org/2000/svg" fill="currentColor" viewBox="0 0 16 16">
<path d="M13.336 15.166H2.669a1.833 1.833 0 0 1-1.833-1.833V3.999a1.833 1.833 0 0 1 1.833-1.833h10.667a1.833 1.833 0 0 1 1.833 1.833v9.334a1.833 1.833 0 0 1-1.833 1.833m-10.667-12a.833.833 0 0 0-.833.833v9.334a.833.833 0 0 0 .833.833h10.667a.833.833 0 0 0 .833-.833V3.999a.833.833 0 0 0-.833-.833z"/>
<path d="M9.336 3.166a.507.507 0 0 1-.5-.5V1.333a.5.5 0 0 1 1 0v1.333a.507.507 0 0 1-.5.5m2.664 0a.507.507 0 0 1-.5-.5V1.333a.5.5 0 0 1 1 0v1.333a.507.507 0 0 1-.5.5m-5.328 0a.507.507 0 0 1-.5-.5V1.333a.5.5 0 1 1 1 0v1.333a.507.507 0 0 1-.5.5M4 3.166a.507.507 0 0 1-.5-.5V1.333a.5.5 0 1 1 1 0v1.333a.507.507 0 0 1-.5.5M14.432 7H1.568a.6.6 0 0 1-.402-.146A.47.47 0 0 1 1 6.5c0-.133.06-.26.166-.354A.6.6 0 0 1 1.568 6h12.864c.151 0 .295.053.402.146.106.094.166.221.166.354s-.06.26-.166.354a.6.6 0 0 1-.402.146"/>
</svg>