<svg xmlns="http://www.w3.org/2000/svg" fill="currentColor" viewBox="0 0 16 16">
<path d="M10.853 9.413 8.623 7.74V4.332a.62.62 0 1 0-1.24 0V8.05c0 .195.092.379.248.495l2.478 1.86a.616.616 0 0 0 .868-.125.62.62 0 0 0-.124-.867"/>
<path d="M8 0C3.589 0 0 3.589 0 8c0 4.412 3.589 8 8 8 4.412 0 8-3.588 8-8 0-4.411-3.588-8-8-8m0 14.76A6.77 6.77 0 0 1 1.24 8 6.77 6.77 0 0 1 8 1.24 6.77 6.77 0 0 1 14.76 8 6.77 6.77 0 0 1 8 14.76"/>
<defs><clipPath id="a"><path fill="#fff" d="M0 0h16v16H0z"/></clipPath></defs>
</svg>